# xmcd
#
# Track frame offsets:
#	150
#	21455
#	38240
#	57262
#	72982
#	88192
#	103942
#	123045
#	138282
#	156440
#	174622
#	188512
#	210207
#	226232
#	246157
#
# Disc length: 3466 seconds
# Revision: 0
# Processed by: cddbd v1.5.2PL0 Copyright (c) Steve Scherf et al.
# Submitted via: dBpowerAMP V12.0
#
DISCID=cb0d880f
DTITLE=Chitãozinho and Xororó - Sem limite (disco 1)
DYEAR=2001
DGENRE=Country
TTITLE0=Sinônimo
TTITLE1=Frete
TTITLE2=Frio da solidão
TTITLE3=Bailão de peão
TTITLE4=Alô
TTITLE5=Vida marvada
TTITLE6=No rancho fundo
TTITLE7=Pura emoção
TTITLE8=Eu e o sabiá
TTITLE9=Brincar de ser feliz
TTITLE10=Nascemos para cantar (Shambala)
TTITLE11=Somos assim
TTITLE12=Se Deus me ouvisse
TTITLE13=Página virada
TTITLE14=Fio de cabelo (ao vivo)
EXTD=
EXTT0=
EXTT1=
EXTT2=
EXTT3=
EXTT4=
EXTT5=
EXTT6=
EXTT7=
EXTT8=
EXTT9=
EXTT10=
EXTT11=
EXTT12=
EXTT13=
EXTT14=
PLAYORDER=
